HIERARCHY
ROOT root
{
	OFFSET 0.000000 0.000000 0.000000
	CHANNELS 6 Xposition Yposition Zposition Zrotation Yrotation Xrotation
	JOINT lhip
	{
		OFFSET 0.058581 -0.082280 -0.017664
		CHANNELS 3 Zrotation Yrotation Xrotation
		JOINT lknee
		{
			OFFSET 0.043451 -0.386469 0.008037
			CHANNELS 3 Zrotation Yrotation Xrotation
			JOINT lankle
			{
				OFFSET -0.014790 -0.426874 -0.037428
				CHANNELS 3 Zrotation Yrotation Xrotation
				JOINT ltoe
				{
					OFFSET 0.041054 -0.060286 0.122042
					CHANNELS 3 Zrotation Yrotation Xrotation
					End Site
					{
						OFFSET 0.000000 0.000000 0.000000
					}
				}
			}
		}
	}
	JOINT rhip
	{
		OFFSET -0.060310 -0.090513 -0.013543
		CHANNELS 3 Zrotation Yrotation Xrotation
		JOINT rknee
		{
			OFFSET -0.043257 -0.383688 -0.004843
			CHANNELS 3 Zrotation Yrotation Xrotation
			JOINT rankle
			{
				OFFSET 0.019056 -0.420046 -0.034562
				CHANNELS 3 Zrotation Yrotation Xrotation
				JOINT rtoe
				{
					OFFSET -0.034840 -0.062106 0.130323
					CHANNELS 3 Zrotation Yrotation Xrotation
					End Site
					{
						OFFSET 0.000000 0.000000 0.000000
					}
				}
			}
		}
	}
	JOINT lowerback
	{
		OFFSET 0.004439 0.124404 -0.038385
		CHANNELS 3 Zrotation Yrotation Xrotation
		JOINT upperback
		{
			OFFSET 0.004488 0.137956 0.026820
			CHANNELS 3 Zrotation Yrotation Xrotation
			JOINT chest
			{
				OFFSET -0.002265 0.056032 0.002855
				CHANNELS 3 Zrotation Yrotation Xrotation
				JOINT lowerneck
				{
					OFFSET -0.013390 0.211636 -0.033468
					CHANNELS 3 Zrotation Yrotation Xrotation
					JOINT upperneck
					{
						OFFSET 0.010113 0.088937 0.050410
						CHANNELS 3 Zrotation Yrotation Xrotation
						End Site
						{
							OFFSET 0.000000 0.000000 0.000000
						}
					}
				}
				JOINT lclavicle
				{
					OFFSET 0.071702 0.114000 -0.018898
					CHANNELS 3 Zrotation Yrotation Xrotation
					JOINT lshoulder
					{
						OFFSET 0.122921 0.045205 -0.019046
						CHANNELS 3 Zrotation Yrotation Xrotation
						JOINT lelbow
						{
							OFFSET 0.255332 -0.015649 -0.022946
							CHANNELS 3 Zrotation Yrotation Xrotation
							JOINT lwrist
							{
								OFFSET 0.265709 0.012698 -0.007375
								CHANNELS 3 Zrotation Yrotation Xrotation
								End Site
								{
									OFFSET 0.000000 0.000000 0.000000
								}
							}
						}
					}
				}
				JOINT rclavicle
				{
					OFFSET -0.082954 0.112472 -0.023707
					CHANNELS 3 Zrotation Yrotation Xrotation
					JOINT rshoulder
					{
						OFFSET -0.113228 0.046853 -0.008472
						CHANNELS 3 Zrotation Yrotation Xrotation
						JOINT relbow
						{
							OFFSET -0.260127 -0.014369 -0.031269
							CHANNELS 3 Zrotation Yrotation Xrotation
							JOINT rwrist
							{
								OFFSET -0.269108 0.006794 -0.006027
								CHANNELS 3 Zrotation Yrotation Xrotation
								End Site
								{
									OFFSET 0.000000 0.000000 0.000000
								}
							}
						}
					}
				}
			}
		}
	}
}
MOTION
Frames: 10
Frame Time: 0.033333
-1.826222 -0.023301 1.056840 2.345108 0.639614 85.801390 4.323556 -0.711763 -13.919391 -7.618297 5.465642 36.320255 1.723141 11.059506 -21.041789 0.000000 -0.000000 0.000000 -2.217980 -1.053674 -10.662676 6.311533 -1.125320 28.208269 3.779278 0.587151 -13.876677 0.000000 -0.000000 0.000000 1.153900 2.239351 16.792284 -1.703431 1.241868 -8.432169 -2.648998 0.943351 -0.265217 3.417419 -3.581221 -12.569591 2.366891 -8.270564 7.278500 -28.586954 5.267629 -1.149319 -61.143988 -3.635507 8.363713 12.852264 -23.529483 -6.128733 -3.595818 -9.215917 -19.813045 25.086214 0.286346 -1.999369 58.367580 5.317342 10.058068 -18.000793 20.022628 -5.937363 13.207861 4.012192 -0.538378 
-1.820587 -0.023727 1.054711 2.092573 0.085676 85.313361 5.959850 -0.420587 -13.862748 -6.579441 4.809078 38.014781 1.221680 11.410417 -20.401233 0.000000 -0.000000 0.000000 -2.371328 -0.576045 -11.662899 5.352345 -0.098327 31.035319 3.529793 -0.334270 -15.407081 0.000000 -0.000000 0.000000 0.424349 2.259588 17.026758 -1.790074 1.290834 -8.317012 -2.618074 0.804578 -0.308507 3.533409 -3.033970 -12.508227 2.227139 -7.947093 7.454710 -28.543602 5.227287 -1.075062 -60.366791 -3.388179 7.628322 12.993595 -22.238984 -6.083842 -2.833586 -7.942962 -19.094189 25.166092 0.597568 -2.301583 57.560628 6.160858 10.010489 -18.572097 21.564408 -6.829442 11.864841 4.125072 -1.342978 
-1.814174 -0.024753 1.051735 1.819040 -0.773753 84.749662 7.657241 -0.133851 -13.362008 -5.485755 3.882905 38.892529 0.674695 11.704409 -19.285556 0.000000 -0.000000 0.000000 -2.456998 0.197009 -12.662520 3.958470 1.280032 34.187145 3.051006 -1.789758 -17.346786 0.000000 -0.000000 0.000000 -0.759237 2.336095 17.211151 -1.906694 1.398943 -8.085874 -2.527011 0.698270 -0.310323 3.702103 -2.423171 -12.442490 2.109574 -7.918480 7.537470 -28.243507 5.293518 -0.902676 -59.314465 -3.078921 7.213044 12.633249 -22.120483 -4.896575 -2.445934 -7.224280 -18.228470 25.200396 0.856591 -2.610241 57.068414 6.673607 10.178600 -19.355820 23.445653 -7.814600 10.626420 4.378996 -2.269614 
-1.806809 -0.026484 1.047136 1.551959 -1.802133 84.161552 9.555730 0.073106 -12.533149 -4.384212 2.931593 39.027309 0.318509 12.111487 -17.613282 0.000000 -0.000000 0.000000 -3.008064 0.909622 -13.614918 3.164250 2.517415 37.501537 2.489647 -3.167824 -19.396323 0.000000 -0.000000 0.000000 -2.228894 2.434305 17.171232 -2.015122 1.543446 -7.659202 -2.435532 0.627060 -0.243125 4.041682 -1.675905 -12.522603 1.889937 -8.155167 7.839438 -28.025395 5.568933 -0.777646 -57.947248 -2.684265 7.161284 11.984326 -23.065767 -3.647164 -2.342632 -7.529145 -17.731313 25.508148 1.007318 -2.924235 56.420328 7.092878 10.538348 -20.081435 25.285974 -8.971835 9.727931 4.785431 -2.783801 
-1.797741 -0.028991 1.041457 1.510708 -2.585720 83.455582 11.836308 0.082354 -11.374181 -3.263792 1.682653 38.481680 -0.145000 12.664008 -15.539323 0.000000 -0.000000 0.000000 -4.357201 1.065917 -14.084690 3.391843 2.954127 40.347265 2.351349 -3.566342 -21.175642 0.000000 -0.000000 0.000000 -3.272242 2.425746 17.202179 -2.139124 1.600292 -7.177177 -2.448221 0.508444 -0.237321 4.362948 -0.954956 -12.617266 1.631085 -8.532827 8.376769 -28.066505 6.035452 -0.741388 -56.549831 -2.350767 7.182134 11.347058 -24.445700 -2.983713 -2.210495 -8.142979 -17.526989 26.097921 1.015317 -3.239679 55.419976 7.444377 10.754825 -20.439216 26.911547 -9.843767 9.026810 5.215641 -2.613586 
-1.787264 -0.031541 1.035267 1.442043 -2.898475 83.008599 14.661135 0.126148 -10.341784 -2.113152 0.475466 37.404353 -0.668627 13.345800 -12.653890 0.000000 -0.000000 0.000000 -5.669719 0.702706 -14.723529 4.161576 3.274124 42.909493 2.251885 -3.631442 -22.647665 0.000000 -0.000000 0.000000 -3.803655 2.368612 16.964954 -2.146369 1.721005 -6.718721 -2.460538 0.374752 -0.389661 4.451090 -0.502819 -12.535592 1.487012 -8.778967 8.960366 -28.298883 6.647389 -0.787398 -55.502014 -2.252340 7.174376 11.055489 -25.551935 -3.150214 -0.965853 -7.787577 -17.952614 26.782968 0.834037 -3.419659 54.223414 7.757343 10.745712 -20.421682 28.172774 -10.273952 8.134592 5.421044 -2.139943 
-1.775338 -0.033672 1.028824 1.186727 -3.055165 82.989967 17.480870 0.305293 -9.560787 -0.956451 -0.574081 35.893423 -1.047938 13.901496 -9.304217 0.000000 -0.000000 0.000000 -6.783534 0.107470 -16.026485 4.888862 3.789167 45.644799 2.067804 -3.616754 -24.008409 0.000000 -0.000000 0.000000 -4.275743 2.388389 16.278015 -2.084963 1.999122 -6.326096 -2.395962 0.241081 -0.582035 4.468456 -0.218611 -12.443766 1.399772 -8.967468 9.589834 -28.553377 7.332868 -0.932410 -54.995473 -2.498208 7.096731 11.408763 -25.964550 -3.940489 1.106678 -6.692642 -18.322555 27.516772 0.507457 -3.487711 53.159612 8.073944 10.629533 -20.297858 28.764947 -10.614660 7.165528 5.467803 -1.667272 
-1.761746 -0.035965 1.022323 0.785793 -3.223231 82.994177 19.921074 0.446964 -8.473736 -0.432586 -2.117187 34.039241 -1.476000 13.775028 -5.627850 0.000000 -0.000000 0.000000 -7.994685 -0.290499 -17.250866 5.417412 4.141919 48.175671 1.897764 -3.380812 -25.288136 0.000000 -0.000000 0.000000 -4.856362 2.427489 15.539332 -2.024297 2.400987 -5.889693 -2.239849 0.152465 -0.792329 4.522290 0.094693 -12.471214 1.326907 -9.279296 10.246030 -28.764105 7.899942 -1.103835 -54.901569 -2.964188 6.964949 12.173516 -25.743611 -5.063915 2.762379 -5.736782 -18.718479 28.261701 0.256479 -3.474487 52.369456 8.302359 10.411709 -20.256276 28.546683 -11.042055 6.527265 5.430128 -1.449183 
-1.745527 -0.039293 1.015841 0.456999 -3.326681 82.891937 21.645496 -0.432134 -6.824424 -0.761612 -4.619314 31.521030 -2.221840 12.938319 -0.649400 0.000000 -0.000000 0.000000 -9.534231 -0.285901 -17.909722 6.111947 4.195711 49.941587 1.551333 -3.498448 -26.508167 0.000000 -0.000000 0.000000 -5.294618 2.154824 15.225083 -2.235147 2.774137 -5.689471 -1.971920 0.078546 -1.355818 4.798882 0.098402 -12.070607 1.540175 -9.056541 10.847821 -27.478211 7.164615 -1.275270 -56.663739 -1.745431 4.879224 13.128428 -25.725807 -4.656880 4.346533 -5.642891 -19.863440 27.618757 1.798883 -3.398424 53.003497 6.857774 7.252524 -19.818181 27.839523 -12.475235 8.604588 5.769187 2.015171 
-1.726826 -0.042111 1.010242 0.448073 -3.147126 82.852183 22.970494 -1.037877 -5.243313 -2.686644 -9.589472 29.207768 -4.287826 11.417714 -0.171591 0.000000 -0.000000 0.000000 -11.008643 -0.612623 -18.306929 6.489852 4.093394 51.095569 1.919665 -2.969961 -27.392265 0.000000 -0.000000 0.000000 -5.292551 1.963454 14.648942 -2.013669 2.847592 -5.220695 -1.976402 0.067687 -1.508960 5.060984 0.825153 -12.280448 1.200448 -9.760062 11.090961 -27.645629 7.059039 -1.364393 -56.826030 -1.912884 5.002496 13.997309 -25.102143 -5.270639 5.582902 -5.014674 -20.341343 28.233819 1.888856 -3.328211 52.516101 6.681840 6.546040 -19.529046 26.258971 -12.412117 8.211875 5.751363 1.971106 
